<svg width="17" height="19" viewBox="0 0 17 19" fill="none" xmlns="http://www.w3.org/2000/svg">
<path d="M14.0377 17.2217V12.1789H15.7209V18.9048H0.536133V12.1789H2.21335V17.2217H14.0377ZM3.89588 15.5416H12.3582V13.859H3.89588V15.5416ZM4.10265 11.7204L12.3588 13.4431L12.7126 11.8126L4.46007 10.0922L4.10265 11.7204ZM5.17314 7.73858L12.8172 11.3051L13.5279 9.76908L5.88502 6.2002L5.17373 7.72677L5.17314 7.73858ZM7.31175 3.96943L13.7825 9.36971L14.8536 8.09186L8.38283 2.69512L7.31766 3.96588L7.31175 3.96943ZM11.4903 0L10.115 1.0185L15.1608 7.79648L16.5361 6.77798L11.4903 0Z" fill="white"/>
</svg>
