<svg viewBox="0 0 14 16" xmlns="http://www.w3.org/2000/svg" width="14" height="16"><path fill="#737373" d="M13.765 12.085h-.915c-.047.422-.328.963-1.032.963-.64 0-1.103-.444-1.547-1.119a5.954 5.954 0 0 0 2.335-4.781c.004-3.672-3.019-6.147-6.2-6.147-3.115 0-6.177 2.49-6.177 6.147 0 4.19 4.103 6.925 7.781 5.906.615 1.05 1.428 1.947 2.975 1.947 2.556 0 2.838-2.353 2.782-2.915zm-4.484-1.797c-.609-.913-1.366-1.631-2.859-1.631-.953 0-1.697.312-2.156.712l.382.759c.193-.094.406-.125.619-.125 1.109 0 1.678.963 2.162 1.915a3.51 3.51 0 0 1-1.022.131c-2.344 0-3.359-1.656-3.359-4.896 0-3.263 1.016-4.934 3.359-4.934 2.381 0 3.397 1.672 3.397 4.928.004 1.306-.169 2.363-.521 3.14z"/></svg>