<svg xmlns="http://www.w3.org/2000/svg" width="15.059" height="16" fill="none" viewBox="0 0 15.059 16"><g clip-path="url(#a)"><path fill="#737373" d="M11.911 14.188v-4.017h1.341v5.359H1.157v-5.358h1.336v4.017h9.419Zm-8.078-1.337h6.741V11.51H3.833v1.341Zm.165-3.045 6.577 1.372.281-1.299L4.282 8.51l-.285 1.297Zm.853-3.172 6.089 2.841.566-1.224-6.088-2.842-.567 1.216-.001.009Zm1.704-3.002 5.153 4.302.853-1.018-5.154-4.299-.849 1.012-.005.004ZM9.882.471l-1.095.811 4.019 5.399 1.096-.81-4.02-5.4Z"/></g><defs><clipPath id="a"><path fill="#fff" d="M0 .471h15.059V15.53H0z"/></clipPath></defs></svg>