<svg viewBox="0 0 16 12.8" xmlns="http://www.w3.org/2000/svg" width="16" height="12.8"><path fill="#FFFFFF" d="M13.113 1.746a.038.038 0 0 0-.019-.017 12.127 12.127 0 0 0-2.992-.928.045.045 0 0 0-.048.023 8.437 8.437 0 0 0-.373.765 11.196 11.196 0 0 0-3.361 0 7.739 7.739 0 0 0-.378-.765.047.047 0 0 0-.048-.023 12.092 12.092 0 0 0-2.992.928.043.043 0 0 0-.02.017C.977 4.591.455 7.367.711 10.109a.05.05 0 0 0 .019.034 12.192 12.192 0 0 0 3.671 1.855.048.048 0 0 0 .052-.017 8.705 8.705 0 0 0 .75-1.221.047.047 0 0 0-.025-.065 8.029 8.029 0 0 1-1.147-.546.047.047 0 0 1-.005-.078 6.276 6.276 0 0 0 .228-.178.045.045 0 0 1 .048-.006c2.406 1.098 5.01 1.098 7.388 0a.045.045 0 0 1 .048.006 5.863 5.863 0 0 0 .228.179.047.047 0 0 1-.004.078 7.535 7.535 0 0 1-1.147.546.047.047 0 0 0-.025.065 9.776 9.776 0 0 0 .75 1.22.047.047 0 0 0 .052.017 12.151 12.151 0 0 0 3.676-1.855.047.047 0 0 0 .019-.034c.307-3.17-.513-5.923-2.173-8.364ZM5.562 8.44c-.724 0-1.321-.665-1.321-1.481s.585-1.481 1.321-1.481c.742 0 1.333.671 1.321 1.481 0 .816-.585 1.481-1.321 1.481Zm4.885 0c-.724 0-1.321-.665-1.321-1.481s.585-1.481 1.321-1.481c.742 0 1.333.671 1.321 1.481 0 .816-.579 1.481-1.321 1.481Z"/></svg>