<svg width="16" height="16" viewBox="0 0 20.48 20.48" xmlns="http://www.w3.org/2000/svg"><path style="fill:#737373" d="M20.48 10.24a10.24 10.24 0 0 1-10.24 10.24A10.24 10.24 0 0 1 0 10.24a10.24 10.24 0 0 1 20.48 0z"/><path d="M5.524 9.336v-.49h1.26v2.824h-1.26v-.486h.738V9.336h-.738zm-.59-.004v-.486h-1.26v2.824h.75l.51 1.03v-1.524l-.738.002V9.33h.738zm5.442-.356.02-.028.108-.122H9.88l-.894 1.06-.896-1.06-.63.004.112.12 1.1 1.308-1.1 1.31-.112.124h.63l.896-1.06.894 1.06.626-.004-.106-.12-1.106-1.308 1.082-1.284zm2.72-.148h-2.328v2.866h2.328a.523.523 0 0 0 .38-.156c.104-.1.16-.238.158-.38V9.366a.51.51 0 0 0-.158-.38.517.517 0 0 0-.38-.158zm.056 2.33c0 .016-.006.03-.016.042a.047.047 0 0 1-.042.016h-1.792a.065.065 0 0 1-.042-.016.065.065 0 0 1-.016-.042V9.366c0-.016.004-.03.016-.042a.054.054 0 0 1 .042-.018h1.792c.016 0 .03.006.042.018.012.01.018.026.016.042v1.792zm3.498-2.172a.517.517 0 0 0-.38-.158h-1.794a.521.521 0 0 0-.38.158.523.523 0 0 0-.156.38v2.328h.48v-.98h1.908v.98h.478V9.366a.515.515 0 0 0-.156-.38zm-.322 1.246H14.42v-.866a.049.049 0 0 1 .018-.042.05.05 0 0 1 .038-.018h1.794c.014 0 .03.006.038.018.012.01.02.026.018.042v.866z" style="fill:#fff"/></svg>