<svg xmlns="http://www.w3.org/2000/svg" viewBox="0 0 16 16" xml:space="preserve" width="16" height="16"><g fill="#FFFFFF"><path d="M7.958 4.713c-1.975 0-3.612 1.608-3.612 3.612s1.608 3.612 3.612 3.612S11.57 10.3 11.57 8.325 9.933 4.713 7.958 4.713zm0 5.926c-1.27 0-2.314-1.044-2.314-2.314s1.044-2.314 2.314-2.314 2.314 1.044 2.314 2.314-1.044 2.314-2.314 2.314zm4.571-6.011a.818.818 0 0 1-.818.818.818.818 0 0 1-.819-.818.818.818 0 0 1 1.637 0z"/><path d="M13.827 2.511c-.734-.762-1.778-1.157-2.963-1.157H5.051C2.596 1.354.959 2.991.959 5.446v5.785c0 1.213.395 2.257 1.185 3.019.762.734 1.778 1.101 2.935 1.101h5.757c1.213 0 2.229-.395 2.963-1.101.762-.734 1.157-1.778 1.157-2.991V5.446c0-1.185-.395-2.201-1.129-2.935zm-.113 8.748c0 .875-.31 1.58-.818 2.06s-1.213.734-2.06.734H5.079c-.847 0-1.552-.254-2.06-.734-.508-.508-.762-1.213-.762-2.088V5.446c0-.847.254-1.552.762-2.06.48-.48 1.213-.734 2.06-.734h5.813c.847 0 1.552.254 2.06.762.48.508.762 1.213.762 2.032v5.813z"/></g></svg>