<svg xmlns="http://www.w3.org/2000/svg" width="16" height="16" viewBox="0 0 16 16" xml:space="preserve"><path fill="#FFFFFF" d="M11.676 7.439a5.261 5.261 0 0 0-.202-.091c-.118-2.185-1.312-3.435-3.317-3.448H8.13c-1.199 0-2.196.512-2.81 1.443l1.102.756c.459-.696 1.178-.844 1.708-.844h.018c.66.004 1.158.196 1.48.57.235.272.392.649.469 1.124a8.387 8.387 0 0 0-1.894-.091c-1.906.11-3.131 1.221-3.049 2.765a2.381 2.381 0 0 0 1.099 1.897c.564.372 1.29.554 2.045.513.997-.055 1.778-.435 2.324-1.13.414-.528.676-1.212.792-2.074.475.287.827.664 1.021 1.117.331.771.35 2.038-.684 3.07-.905.905-1.994 1.296-3.639 1.308-1.825-.013-3.205-.599-4.102-1.739C3.171 11.517 2.737 9.975 2.721 8c.016-1.975.45-3.517 1.291-4.585.897-1.141 2.277-1.726 4.102-1.739 1.838.014 3.242.602 4.174 1.748.457.562.801 1.269 1.028 2.093l1.292-.345c-.275-1.014-.708-1.889-1.298-2.614C12.116 1.088 10.369.336 8.118.32h-.009c-2.246.015-3.973.771-5.133 2.246-1.032 1.313-1.565 3.139-1.583 5.428v.011c.018 2.289.55 4.116 1.583 5.428 1.16 1.475 2.888 2.231 5.134 2.246h.009c1.997-.014 3.404-.537 4.564-1.695 1.517-1.516 1.471-3.415.971-4.582-.359-.836-1.043-1.516-1.978-1.964zm-3.448 3.242c-.835.047-1.703-.328-1.746-1.131-.032-.595.424-1.26 1.797-1.339a7.994 7.994 0 0 1 .463-.013c.499 0 .966.049 1.39.141-.158 1.976-1.087 2.297-1.904 2.342z"/><g/><g/><g/><g/><g/><g/><g/><g/><g/><g/><g/><g/><g/><g/><g/></svg>