<svg viewBox="0 0 16 16" xml:space="preserve" xmlns="http://www.w3.org/2000/svg" fill-rule="evenodd" clip-rule="evenodd" stroke-linejoin="round" stroke-miterlimit="2" width="16" height="16"><path d="M8.858 7.992c0 2.275-1.832 4.12-4.091 4.12-2.26 0-4.092-1.844-4.092-4.12 0-2.275 1.832-4.12 4.092-4.12s4.091 1.845 4.091 4.12m4.488 0c0 2.142-.916 3.878-2.046 3.878s-2.046-1.737-2.046-3.878.916-3.878 2.046-3.878 2.046 1.736 2.046 3.878m1.836 0c0 1.918-.322 3.474-.72 3.474-.397 0-.719-1.556-.719-3.474s.322-3.474.719-3.474.72 1.556.72 3.474" fill-rule="nonzero" fill="#fff" class="fill-000000 fill-737373"/><path d="M19.288-.019h-4.119v.003H.696v-.003h-4.119v15.987h1.661v.006h19.606v-.006h1.444V-.019Zm-4.119 4.122v7.752H.696V4.103H15.17Z" fill="none"/></svg>