<svg height="16" viewBox="0 0 16 16" width="16" xmlns="http://www.w3.org/2000/svg"><path fill="#FFFFFF" d="M11.647 4.047a3.027 3.027 0 0 0-2.92 2.46 13.267 13.267 0 0 1-1.52-3.267H5.7v4a1.427 1.427 0 1 1-2.853 0v-4l-1.514.033v4A2.933 2.933 0 1 0 7.2 7.24v-.667a13.7 13.7 0 0 0 1.1 1.8l-.92 4.407h1.547l.667-3.207a3.74 3.74 0 0 0 2.073.593 3.047 3.047 0 0 0 0-6.093Zm0 4.553a2.727 2.727 0 0 1-1.7-.667l.153-.607v-.033c.107-.667.44-1.733 1.567-1.733a1.5 1.5 0 0 1 1.513 1.493A1.607 1.607 0 0 1 11.667 8.6Z"/></svg>