<svg baseProfile="tiny" height="16" version="1.2" viewBox="0 0 16 16" width="16" xml:space="preserve" xmlns="http://www.w3.org/2000/svg"><path fill="#FFFFFF" d="M5.91 3.333c.501 0 .96.135 1.379.406a3.27 3.27 0 0 1 .771-.081c1.231 0 2.279.447 3.145 1.339.866.893 1.299 1.975 1.299 3.247 0 .311-.034.635-.101.974.176.393.264.791.264 1.196a2.59 2.59 0 0 1-.761 1.877c-.507.521-1.112.782-1.817.782a2.476 2.476 0 0 1-1.217-.325 5.753 5.753 0 0 1-.811.081c-1.231 0-2.283-.447-3.155-1.339S3.597 9.515 3.597 8.245c0-.298.034-.601.101-.913a2.598 2.598 0 0 1-.365-1.361c0-.731.251-1.353.751-1.866a2.453 2.453 0 0 1 1.826-.772M8 10.353c-.271 0-.486-.041-.65-.122-.175-.095-.297-.189-.365-.283a7.263 7.263 0 0 0-.264-.467 1.02 1.02 0 0 0-.243-.406.715.715 0 0 0-.407-.142.631.631 0 0 0-.467.183.583.583 0 0 0-.183.426c0 .257.096.534.285.832.175.27.419.494.731.669.432.231.967.346 1.603.346.527 0 .993-.081 1.4-.243.406-.189.703-.426.893-.71.203-.311.304-.65.304-1.015 0-.297-.053-.568-.161-.811a1.601 1.601 0 0 0-.508-.547 3.903 3.903 0 0 0-.771-.365 14.838 14.838 0 0 0-.974-.264 3.913 3.913 0 0 1-.355-.071 3.605 3.605 0 0 1-.273-.071 1.931 1.931 0 0 1-.345-.141.702.702 0 0 1-.264-.224.351.351 0 0 1-.101-.264c0-.162.095-.303.284-.426.177-.135.433-.203.771-.203.339 0 .589.061.751.182.175.15.304.319.385.508.109.176.197.297.264.365a.619.619 0 0 0 .385.123.636.636 0 0 0 .466-.204.6.6 0 0 0 .183-.446c0-.135-.048-.311-.143-.527a2.752 2.752 0 0 0-.426-.486 2.565 2.565 0 0 0-.751-.386 3.647 3.647 0 0 0-1.035-.142c-.487 0-.92.073-1.299.223-.377.133-.669.337-.871.607a1.511 1.511 0 0 0-.305.933c0 .351.095.656.284.913.231.27.487.459.771.567.325.149.717.271 1.177.365.081.014.18.037.294.071.115.035.216.061.305.082.087.019.159.037.213.05.189.069.345.162.466.285.122.094.183.236.183.426 0 .231-.108.419-.324.569-.243.162-.547.243-.913.243M5.91 2a3.798 3.798 0 0 0-2.783 1.177A3.93 3.93 0 0 0 2 5.971c0 .555.104 1.079.311 1.565a5.433 5.433 0 0 0-.047.708c0 1.625.569 3.031 1.688 4.178 1.129 1.155 2.512 1.74 4.109 1.74.169 0 .365-.013.597-.04.46.189.939.284 1.431.284 1.059 0 2.017-.409 2.771-1.185A3.941 3.941 0 0 0 14 10.415c0-.451-.074-.899-.221-1.336a6.107 6.107 0 0 0 .059-.834c0-1.625-.564-3.029-1.675-4.175C11.04 2.913 9.66 2.327 8.062 2.327a5.473 5.473 0 0 0-.534.025A3.811 3.811 0 0 0 5.91 2z"/></svg>