<svg width="17" height="17" viewBox="0 0 17 17" fill="none" xmlns="http://www.w3.org/2000/svg">
<path d="M12.267 9.62822L9.46699 11.4946V14.3714L14.4246 11.0666L12.267 9.62822ZM10.8246 8.66662L8.66699 7.22822L6.50939 8.66662L8.66699 10.105L10.8246 8.66662ZM15.067 7.76102L13.7094 8.66662L15.067 9.57222V7.76102ZM14.4246 6.26662L9.46699 2.96182V5.83862L12.267 7.70502L14.4246 6.26662ZM5.06699 7.70502L7.86699 5.83862V2.96182L2.90939 6.26662L5.06699 7.70502ZM2.90939 11.0666L7.86699 14.3714V11.4946L5.06699 9.62822L2.90939 11.0666ZM2.26699 9.57222L3.62459 8.66662L2.26699 7.76102V9.57222ZM0.666992 6.26662C0.666972 6.13495 0.699455 6.00531 0.761556 5.8892C0.823658 5.77309 0.913459 5.6741 1.02299 5.60102L8.22299 0.801024C8.35446 0.713312 8.50895 0.666504 8.66699 0.666504C8.82503 0.666504 8.97953 0.713312 9.11099 0.801024L16.311 5.60102C16.4205 5.6741 16.5103 5.77309 16.5724 5.8892C16.6345 6.00531 16.667 6.13495 16.667 6.26662V11.0666C16.667 11.1983 16.6345 11.3279 16.5724 11.444C16.5103 11.5602 16.4205 11.6591 16.311 11.7322L9.11099 16.5322C8.97953 16.6199 8.82503 16.6667 8.66699 16.6667C8.50895 16.6667 8.35446 16.6199 8.22299 16.5322L1.02299 11.7322C0.913459 11.6591 0.823658 11.5602 0.761556 11.444C0.699455 11.3279 0.666972 11.1983 0.666992 11.0666V6.26662Z" fill="white"/>
</svg>
