<svg height="16" style="enable-background:new 0 0 56.693 56.693" viewBox="0 0 16 16" width="16" xml:space="preserve" xmlns="http://www.w3.org/2000/svg"><path fill="#444" d="M8.088 14.586c-.036 0-.072-.001-.107-.003a.914.914 0 0 1-.07.003c-.831 0-1.364-.377-1.88-.742-.356-.252-.692-.489-1.088-.555a3.513 3.513 0 0 0-.571-.048c-.335 0-.599.051-.792.089-.117.023-.218.043-.295.043-.08 0-.167-.017-.205-.146-.033-.112-.056-.22-.079-.325-.059-.27-.101-.436-.214-.453-1.318-.204-1.695-.481-1.779-.678a.253.253 0 0 1-.02-.084.148.148 0 0 1 .124-.155c2.026-.334 2.934-2.404 2.972-2.492l.003-.007c.124-.251.148-.469.073-.648-.139-.327-.593-.471-.893-.567-.073-.023-.143-.045-.198-.067-.599-.237-.649-.48-.625-.604.04-.211.322-.358.55-.358.063 0 .118.011.164.033.27.126.512.19.722.19.289 0 .416-.121.431-.137-.007-.137-.017-.28-.026-.428-.06-.958-.135-2.148.168-2.827.908-2.036 2.834-2.195 3.403-2.195l.249-.003h.034c.57 0 2.5.159 3.409 2.196.303.68.228 1.871.168 2.828l-.003.041-.023.387c.014.015.131.127.393.137.2-.008.429-.071.68-.189a.523.523 0 0 1 .212-.042c.085 0 .171.016.243.046l.005.002c.203.072.337.214.34.364.003.14-.104.351-.63.559-.054.021-.124.043-.198.067-.301.095-.754.239-.893.567-.076.179-.052.397.073.648l.003.007c.038.088.945 2.158 2.972 2.492a.148.148 0 0 1 .124.155.249.249 0 0 1-.021.085c-.084.196-.461.473-1.779.676-.108.017-.15.157-.214.451a4.221 4.221 0 0 1-.08.323c-.028.096-.088.141-.189.141h-.016c-.07 0-.169-.013-.295-.038a3.979 3.979 0 0 0-.792-.084c-.186 0-.378.016-.572.048-.395.066-.731.303-1.087.554-.517.365-1.05.742-1.881.742z"/></svg>