<svg width="16" height="16" viewBox="0 0 16 16" fill="none" xmlns="http://www.w3.org/2000/svg">
<path d="M11.6 8.96172L8.8 10.8281V13.7049L13.7576 10.4001L11.6 8.96172ZM10.1576 8.00012L8 6.56172L5.8424 8.00012L8 9.43852L10.1576 8.00012ZM14.4 7.09452L13.0424 8.00012L14.4 8.90572V7.09452ZM13.7576 5.60012L8.8 2.29532V5.17212L11.6 7.03852L13.7576 5.60012ZM4.4 7.03852L7.2 5.17212V2.29532L2.2424 5.60012L4.4 7.03852ZM2.2424 10.4001L7.2 13.7049V10.8281L4.4 8.96172L2.2424 10.4001ZM1.6 8.90572L2.9576 8.00012L1.6 7.09452V8.90572ZM8.95952e-09 5.60012C-1.96954e-05 5.46845 0.0324623 5.3388 0.0945641 5.22269C0.156666 5.10658 0.246467 5.0076 0.356 4.93452L7.556 0.13452C7.68746 0.0468085 7.84196 0 8 0C8.15804 0 8.31254 0.0468085 8.444 0.13452L15.644 4.93452C15.7535 5.0076 15.8433 5.10658 15.9054 5.22269C15.9675 5.3388 16 5.46845 16 5.60012V10.4001C16 10.5318 15.9675 10.6614 15.9054 10.7775C15.8433 10.8937 15.7535 10.9926 15.644 11.0657L8.444 15.8657C8.31254 15.9534 8.15804 16.0002 8 16.0002C7.84196 16.0002 7.68746 15.9534 7.556 15.8657L0.356 11.0657C0.246467 10.9926 0.156666 10.8937 0.0945641 10.7775C0.0324623 10.6614 -1.96954e-05 10.5318 8.95952e-09 10.4001V5.60012Z" fill="white"/>
</svg>
