<svg viewBox="0 0 16 16" xml:space="preserve" xmlns="http://www.w3.org/2000/svg" width="16" height="16"><path d="M8 1.5h-.016a6.5 6.5 0 0 0 0 13H8c3.591 0 6.5-2.909 6.5-6.5S11.591 1.5 8 1.5zm.259 3.891a9.599 9.599 0 0 0 2.006-.266c.194.766.316 1.65.334 2.619H8.258V5.391zm0-.522V2.063c.7.194 1.413 1.128 1.863 2.563-.6.144-1.222.225-1.863.244zM7.74 2.056v2.816a9.041 9.041 0 0 1-1.878-.25c.456-1.444 1.172-2.384 1.878-2.566zm0 3.334v2.35H5.384c.019-.969.141-1.853.334-2.619a9.82 9.82 0 0 0 2.022.269zM4.859 7.74H2.028a5.938 5.938 0 0 1 1.353-3.531 9.462 9.462 0 0 0 1.837.775 12.234 12.234 0 0 0-.359 2.756zm0 .519c.019.991.144 1.928.356 2.756a9.705 9.705 0 0 0-1.837.775 5.96 5.96 0 0 1-1.353-3.531h2.834zm.525 0H7.74v2.347a9.62 9.62 0 0 0-2.022.272 11.61 11.61 0 0 1-.334-2.619zm2.356 2.869v2.819c-.706-.184-1.422-1.122-1.878-2.566a8.845 8.845 0 0 1 1.878-.253zm.519 2.809v-2.813a9.195 9.195 0 0 1 1.866.247c-.453 1.438-1.163 2.372-1.866 2.566zm0-3.331V8.259H10.6a11.72 11.72 0 0 1-.334 2.616 9.676 9.676 0 0 0-2.006-.269zm2.862-2.347h2.85a5.947 5.947 0 0 1-1.353 3.531 9.598 9.598 0 0 0-1.853-.781c.212-.828.338-1.759.356-2.75zm0-.519a12.298 12.298 0 0 0-.353-2.753 9.67 9.67 0 0 0 1.85-.778 5.941 5.941 0 0 1 1.353 3.534h-2.85zm1.141-3.931a9.077 9.077 0 0 1-1.634.675c-.303-.978-.731-1.775-1.234-2.3a6.018 6.018 0 0 1 2.869 1.625zM6.588 2.191c-.503.522-.928 1.319-1.228 2.291a8.893 8.893 0 0 1-1.619-.672 5.95 5.95 0 0 1 2.847-1.619zm-2.851 9.997a8.953 8.953 0 0 1 1.619-.672c.303.975.728 1.769 1.231 2.294a5.953 5.953 0 0 1-2.85-1.622zm5.656 1.628c.506-.525.931-1.322 1.238-2.303.572.172 1.116.4 1.634.675a6 6 0 0 1-2.872 1.628z" fill="#737373"/></svg>