<svg height="16" style="enable-background:new 0 0 512 512" viewBox="0 0 16 16" width="16" xml:space="preserve" xmlns="http://www.w3.org/2000/svg"><path d="M13.126 12.673V5.196H5.67v-.467c0-.773.627-1.402 1.398-1.402h1.398V.523H7.068a4.205 4.205 0 0 0-4.194 4.206v.467H1.01V8h1.864v4.673H1.01v2.804h6.524v-2.804H5.67V8h4.686v4.673h-1.89v2.804h6.524v-2.804h-1.864zm0 0" style="fill:#FFFFFF"/><path d="M13.126 1.925a1.4 1.4 0 0 1-1.398 1.402 1.4 1.4 0 0 1-1.398-1.402A1.4 1.4 0 0 1 11.728.523a1.4 1.4 0 0 1 1.398 1.402zm0 0" style="fill:#FFFFFF"/><g/></svg>