<svg width="16" height="16" viewBox="0 0 16 16" fill="none" xmlns="http://www.w3.org/2000/svg">
<path d="M15.5125 8.34698C15.4437 8.34701 15.3757 8.3326 15.3128 8.30469L11.1242 6.42902C11.0384 6.39042 10.9654 6.32782 10.9143 6.24876C10.8631 6.16969 10.8359 6.07753 10.8359 5.98337C10.8359 5.8892 10.8631 5.79704 10.9143 5.71797C10.9654 5.63891 11.0384 5.57631 11.1242 5.53771L15.3128 3.66854C15.431 3.61606 15.5652 3.61253 15.6861 3.65874C15.8069 3.70495 15.9045 3.79713 15.9575 3.91512C16.01 4.03344 16.0134 4.16771 15.9671 4.28855C15.9207 4.40939 15.8284 4.50694 15.7103 4.55986L12.5191 5.98402L15.7109 7.41338C15.813 7.45888 15.8964 7.53804 15.9471 7.63762C15.9978 7.7372 16.0128 7.85117 15.9895 7.96048C15.9663 8.06978 15.9063 8.16781 15.8194 8.23815C15.7326 8.3085 15.6243 8.34692 15.5125 8.34698V8.34698Z" fill="#67BECE"/>
<path d="M9.80397 15.1516C5.19905 15.1516 1.17317 12.0431 0.0157549 7.59168C-0.0168568 7.4665 0.00159638 7.33349 0.067055 7.22191C0.132514 7.11033 0.239616 7.02932 0.3648 6.99671C0.489984 6.9641 0.622996 6.98255 0.734574 7.04801C0.846153 7.11347 0.927158 7.22057 0.95977 7.34576C1.47035 9.3024 2.61559 11.0344 4.21607 12.2704C5.81654 13.5063 7.78181 14.1764 9.80397 14.1757C9.93338 14.1757 10.0575 14.2271 10.149 14.3186C10.2405 14.4101 10.2919 14.5342 10.2919 14.6637C10.2919 14.7931 10.2405 14.9172 10.149 15.0087C10.0575 15.1002 9.93338 15.1516 9.80397 15.1516V15.1516Z" fill="#3F54A3"/>
<path d="M8.12271 11.0996C7.9933 11.0996 7.86919 11.0482 7.77768 10.9567C7.68617 10.8652 7.63477 10.7411 7.63477 10.6116V1.33609C7.63477 1.20668 7.68617 1.08257 7.77768 0.991061C7.86919 0.899553 7.9933 0.848145 8.12271 0.848145C8.25212 0.848145 8.37624 0.899553 8.46774 0.991061C8.55925 1.08257 8.61066 1.20668 8.61066 1.33609V10.6116C8.61066 10.7411 8.55925 10.8652 8.46774 10.9567C8.37624 11.0482 8.25212 11.0996 8.12271 11.0996Z" fill="#67BECE"/>
</svg>
