<svg style="enable-background:new 0 0 64 64" viewBox="0 0 16 16" xml:space="preserve" xmlns="http://www.w3.org/2000/svg" width="16" height="16"><g/><g/><path d="M13.325 6.375c-.275 0-.525.075-.75.175-.2.1-.45.1-.675-.025-.75-.4-1.625-.675-2.55-.825-.425-.05-.7-.475-.6-.9l.375-1.575c.025-.075.075-.125.15-.1l1.425.325c.25.05.45.25.525.5.2.525.725.9 1.325.9.775 0 1.4-.625 1.4-1.4 0-.775-.625-1.4-1.4-1.4-.4 0-.75.15-1 .425-.2.2-.475.275-.725.225l-1.85-.425c-.2-.05-.4.075-.45.25L8 4.675a1.276 1.276 0 0 1-1.1.975c-1.025.125-1.975.4-2.775.825-.2.1-.45.125-.65.025a1.818 1.818 0 0 0-.725-.175c-.925 0-1.675.75-1.675 1.675 0 .45.175.875.475 1.175a.72.72 0 0 1 .225.525v.075c0 1.15.675 2.225 1.9 3 1.175.75 2.725 1.175 4.375 1.175s3.2-.425 4.375-1.175c1.225-.8 1.9-1.85 1.9-3V9.75c0-.2.075-.4.25-.55.325-.3.525-.725.525-1.2-.1-.875-.85-1.625-1.775-1.625zM5 9c0-.55.475-1 1.025-1 .55 0 1 .45 1 1s-.45 1-1 1C5.45 10 5 9.55 5 9zm5.3 2.825c-.475.475-1.25.725-2.3.725-1.05 0-1.775-.225-2.275-.7a.414.414 0 0 1-.075-.5.378.378 0 0 1 .6-.075c.325.325.9.5 1.75.5s1.425-.15 1.75-.5c.15-.15.4-.15.55 0 .15.175.15.4 0 .55zM10 10c-.55 0-1.025-.45-1.025-1S9.45 8 10 8c.55 0 1 .45 1 1s-.45 1-1 1z" style="fill:#737373"/></svg>