<svg width="17" height="17" viewBox="0 0 17 17" fill="none" xmlns="http://www.w3.org/2000/svg">
<path d="M16.4011 7.07014L16.3787 7.01253L14.203 1.33603C14.159 1.22404 14.0806 1.1289 13.979 1.06434C13.8775 0.999767 13.7581 0.969098 13.638 0.976749C13.5178 0.982098 13.4024 1.02541 13.3084 1.10046C13.2144 1.17551 13.1466 1.27843 13.1147 1.39444L11.6456 5.89627H5.69381L4.22228 1.39524C4.19079 1.27919 4.12333 1.17609 4.0296 1.10076C3.93587 1.02543 3.82067 0.981732 3.70056 0.975949C3.58047 0.969416 3.46136 1.00062 3.3599 1.0652C3.25845 1.12977 3.17975 1.22447 3.13483 1.33603L0.956731 7.02053L0.934326 7.07654C0.621624 7.89523 0.583161 8.79332 0.824721 9.63575C1.06628 10.4782 1.57481 11.2194 2.27383 11.748L2.28183 11.7536L2.30104 11.7688L5.6194 14.2526L7.25977 15.4953L8.2576 16.2506C8.37468 16.339 8.51738 16.3869 8.66409 16.3869C8.8108 16.3869 8.95351 16.339 9.07058 16.2506L10.0684 15.4953L11.7088 14.2526L15.0471 11.7536L15.0552 11.7472C15.7567 11.2193 16.2674 10.4775 16.5102 9.63374C16.753 8.79001 16.7147 7.89018 16.4011 7.07014Z" fill="white"/>
</svg>
