<svg viewBox="0 0 16 18.286" xmlns="http://www.w3.org/2000/svg" width="16" height="18.286"><path fill="#FFFFFF" d="M15.732 13.811h-1.046c-.054.482-.375 1.1-1.179 1.1-.732 0-1.261-.507-1.768-1.279a6.804 6.804 0 0 0 2.668-5.464c.004-4.197-3.45-7.025-7.086-7.025-3.56 0-7.06 2.846-7.06 7.025 0 4.789 4.689 7.914 8.893 6.75.703 1.2 1.632 2.225 3.4 2.225 2.921 0 3.243-2.689 3.179-3.332zm-5.125-2.054c-.696-1.043-1.561-1.864-3.268-1.864-1.089 0-1.939.357-2.464.814l.436.868c.221-.107.464-.143.707-.143 1.268 0 1.918 1.1 2.471 2.189-.357.107-.739.15-1.168.15-2.679 0-3.839-1.893-3.839-5.596 0-3.729 1.161-5.639 3.839-5.639 2.721 0 3.882 1.911 3.882 5.632.004 1.493-.193 2.7-.596 3.589z"/></svg>