<svg width="17" height="14" viewBox="0 0 17 14" fill="none" xmlns="http://www.w3.org/2000/svg">
<path d="M8.8626 0.333496C9.28982 0.335896 10.3587 0.346297 11.4947 0.391899L11.898 0.4095C13.0412 0.463102 14.1837 0.555907 14.7509 0.713515C15.5069 0.926326 16.1006 1.54556 16.3014 2.3312C16.6214 3.57926 16.6614 6.01298 16.6662 6.60261L16.667 6.72422V6.86342C16.6614 7.45305 16.6214 9.88757 16.3014 11.1348C16.0982 11.9229 15.5037 12.5429 14.7509 12.7525C14.1837 12.9101 13.0412 13.0029 11.898 13.0565L11.4947 13.0749C10.3587 13.1197 9.28982 13.1309 8.8626 13.1325L8.67459 13.1333H8.47058C7.56654 13.1277 3.78555 13.0869 2.58229 12.7525C1.82705 12.5397 1.23262 11.9205 1.03181 11.1348C0.711794 9.88677 0.671792 7.45305 0.666992 6.86342V6.60261C0.671792 6.01298 0.711794 3.57846 1.03181 2.3312C1.23502 1.54316 1.82945 0.923125 2.58309 0.714315C3.78555 0.379098 7.56734 0.338296 8.47138 0.333496H8.8626ZM7.06651 3.93368V9.53396L11.8668 6.73382L7.06651 3.93368Z" fill="white"/>
</svg>
