<svg width="15.814" height="16" xmlns="http://www.w3.org/2000/svg" preserveAspectRatio="xMidYMid" viewBox="0 0 15.814 16"><path d="m4.18 13.703.259.129a6.754 6.754 0 0 0 3.49.948c3.792 0 6.895-3.103 6.895-6.895a6.917 6.917 0 0 0-2.025-4.869A6.844 6.844 0 0 0 7.93.991a6.859 6.859 0 0 0-6.851 6.937c0 1.293.387 2.542 1.034 3.619l.172.259-.69 2.542 2.586-.646Z" fill="transparent"/><path d="M13.531 2.327C12.065.818 10.04 0 7.972 0 3.577 0 .043 3.577.086 7.929c0 1.379.387 2.715 1.034 3.921L0 15.943l4.18-1.077a7.694 7.694 0 0 0 3.749.948c4.352 0 7.885-3.577 7.885-7.929a7.818 7.818 0 0 0-2.284-5.559ZM7.972 14.479c-1.163 0-2.327-.301-3.318-.904l-.259-.129-2.5.646.646-2.456-.172-.259C.474 8.316 1.379 4.266 4.481 2.37c3.103-1.896 7.111-.991 9.006 2.111 1.896 3.103.991 7.11-2.111 9.006a6.284 6.284 0 0 1-3.404.991Zm3.792-4.783-.474-.215s-.69-.301-1.12-.517c-.043 0-.086-.043-.129-.043-.129 0-.215.043-.301.086 0 0-.043.043-.646.732a.238.238 0 0 1-.215.129h-.043a.326.326 0 0 1-.172-.086l-.215-.086c-.474-.215-.904-.474-1.249-.818-.086-.086-.215-.172-.301-.259-.301-.301-.603-.646-.818-1.034l-.043-.086c-.043-.043-.043-.086-.086-.172 0-.086 0-.172.043-.215 0 0 .172-.215.301-.345.086-.086.129-.215.215-.301.086-.129.129-.301.086-.431-.043-.215-.56-1.379-.69-1.638a.498.498 0 0 0-.301-.215h-.475c-.086 0-.172.043-.259.043l-.043.043c-.086.043-.172.129-.259.172-.086.086-.129.172-.215.259a2.2 2.2 0 0 0-.474 1.335c0 .345.086.69.215.991l.043.129a7.168 7.168 0 0 0 1.594 2.197l.172.172c.129.129.259.215.345.345a7.699 7.699 0 0 0 3.103 1.638c.129.043.301.043.431.086h.431c.215 0 .474-.086.646-.172.129-.086.215-.086.301-.172l.086-.086c.086-.086.172-.129.259-.215.086-.086.172-.172.215-.259.086-.172.129-.387.172-.603v-.301s-.043-.043-.129-.086Z" fill="#737373"/></svg>