<svg width="17" height="17" viewBox="0 0 17 17" fill="none" xmlns="http://www.w3.org/2000/svg">
<path d="M14.7222 0.5C15.1937 0.5 15.6459 0.687301 15.9793 1.0207C16.3127 1.3541 16.5 1.80628 16.5 2.27778V14.7222C16.5 15.1937 16.3127 15.6459 15.9793 15.9793C15.6459 16.3127 15.1937 16.5 14.7222 16.5H2.27778C1.80628 16.5 1.3541 16.3127 1.0207 15.9793C0.687301 15.6459 0.5 15.1937 0.5 14.7222V2.27778C0.5 1.80628 0.687301 1.3541 1.0207 1.0207C1.3541 0.687301 1.80628 0.5 2.27778 0.5H14.7222ZM14.2778 14.2778V9.56667C14.2778 8.79813 13.9725 8.06107 13.429 7.51763C12.8856 6.97419 12.1485 6.66889 11.38 6.66889C10.6244 6.66889 9.74444 7.13111 9.31778 7.82444V6.83778H6.83778V14.2778H9.31778V9.89556C9.31778 9.21111 9.86889 8.65111 10.5533 8.65111C10.8834 8.65111 11.1999 8.78222 11.4333 9.0156C11.6667 9.24898 11.7978 9.56551 11.7978 9.89556V14.2778H14.2778ZM3.94889 5.44222C4.34495 5.44222 4.72478 5.28489 5.00484 5.00484C5.28489 4.72478 5.44222 4.34495 5.44222 3.94889C5.44222 3.12222 4.77556 2.44667 3.94889 2.44667C3.55047 2.44667 3.16838 2.60494 2.88666 2.88666C2.60494 3.16838 2.44667 3.55047 2.44667 3.94889C2.44667 4.77556 3.12222 5.44222 3.94889 5.44222ZM5.18444 14.2778V6.83778H2.72222V14.2778H5.18444Z" fill="white"/>
</svg>
